<svg height="512" viewBox="0 0 58 38" width="512" xmlns="http://www.w3.org/2000/svg"><g id="Page-1" fill="none" fill-rule="evenodd"><g id="014---Open-Book" fill-rule="nonzero"><path id="Shape" d="m3.787 20.925-3.667 10.405c-.21745411.6116045-.12456536 1.2907028.24914201 1.8214468.37370738.530744.98174759.847114 1.63085799.8485532h20c0 2.21 3.13 4 7 4s7-1.79 7-4h20c.6491104-.0014392 1.2571506-.3178092 1.630858-.8485532s.4665961-1.2098423.249142-1.8214468l-3.667-10.4z" fill="#a56a43"/><path id="Shape" d="m8.028 20.925-3.198 9.075h23.16 2.02 23.16l-3.172-8.999z" fill="#805333"/><path id="Shape" d="m36 34c0 2.21-3.13 4-7 4s-7-1.79-7-4l1-4h12z" fill="#603e26"/><path id="Shape" d="m29 7v25c-.5900897-1.459522-1.4179714-2.8111656-2.45-4-3.23-3.83-10.14-8.42-23.43-3.99-.36044587.1243741-.76027497.0313708-1.02882741-.239313s-.35839213-.6712356-.23117259-1.030687l7.24-20.55c.10334731-.28339153.32660847-.50665269.61-.61 15.41-5.58 19.29 5.42 19.29 5.42z" fill="#f9eab0"/><path id="Shape" d="m54.88 24.01c-13.29-4.43-20.2.16-23.43 3.99-1.0320286 1.1888344-1.8599103 2.540478-2.45 4v-25s3.88-11 19.29-5.42c.2833915.10334731.5066527.32660847.61.61l7.24 20.55c.1272195.3594514.0373799.7600032-.2311726 1.030687-.2685524.2706838-.6683815.3636871-1.0288274.239313z" fill="#f5efca"/><g fill="#3f5c6c"><path id="Shape" d="m33.761 21.91c-.4304304 0-.8125693-.2754301-.9486833-.6837722-.136114-.4083422.004339-.8579696.3486833-1.1162278 3.053-2.305 8.528-4.617 17.275-2.535.5242218.1390189.8420793.6705652.7164863 1.1981646-.1255931.5275994-.6488531.8589208-1.1794863.7468354-6.417-1.52-11.673-.79-15.611 2.188-.1731188.1307416-.3840591.20164-.601.202z"/><path id="Shape" d="m24.239 21.91c-.2164643.0005822-.4271779-.0696557-.6-.2-3.954-2.978-9.206-3.71-15.607-2.188-.35046929.091236-.72287871-.0141428-.97357967-.2754889-.25070095-.261346-.34051114-.6378133-.23478828-.9841879.10572285-.3463747.39045521-.6085215.74436795-.6853232 8.73-2.081 14.212.23 17.274 2.534.3443443.2582582.4847973.7078856.3486833 1.1162278-.136114.4083421-.5182529.6837722-.9486833.6837722z"/><path id="Shape" d="m33.471 17.29c-.4304304 0-.8125693-.2754301-.9486833-.6837722-.136114-.4083422.004339-.8579696.3486833-1.1162278 2.873-2.181 8.028-4.368 16.265-2.407.5373731.1278539.8693539.6671269.7415 1.2045s-.6671269.8693539-1.2045.7415c-6.005-1.43-10.915-.739-14.593 2.053-.1742087.1351507-.3885136.2083452-.609.208z"/><path id="Shape" d="m24.529 17.29c-.2164761.0006557-.4272125-.0695898-.6-.2-3.678-2.792-8.588-3.482-14.593-2.053-.53737306.1278539-1.07664608-.2041269-1.2045-.7415s.20412694-1.0766461.7415-1.2045c8.237-1.963 13.393.226 16.265 2.407.3450916.2588074.4853363.7097292.3479072 1.1186091s-.5215549.6835549-.9529072.6813909z"/><path id="Shape" d="m33.181 12.66c-.4304304 0-.8125693-.2754301-.9486833-.6837722-.136114-.4083422.004339-.8579696.3486833-1.1162278 2.7-2.045 7.54-4.1 15.244-2.266.5242218.13901885.8420793.67056523.7164863 1.1981646-.1255931.5275994-.6488531.8589208-1.1794863.7468354-5.578-1.325-10.145-.683-13.574 1.916-.1743754.1330538-.3876598.2050856-.607.205z"/><path id="Shape" d="m24.819 12.66c-.2163702 0-.4269038-.0701779-.6-.2-3.429-2.6-8-3.243-13.574-1.916-.3512127.0931384-.72530955-.0115583-.9771555-.2734719-.25184595-.2619135-.34180634-.63982492-.23498002-.98711908s.39362742-.60931518.74913552-.68440902c7.705-1.833 12.543.22 15.244 2.266.3443443.2582582.4847973.7078856.3486833 1.1162278-.136114.4083421-.5182529.6837722-.9486833.6837722z"/><path id="Shape" d="m32.881 8.03c-.431722.00303637-.8166481-.27133512-.954605-.68043293-.1379569-.40909782.0022082-.86054169.347605-1.11956707 2.518-1.914 7.033-3.835 14.238-2.117.5267441.13712474.8470797.67035158.7207756 1.19979454-.1263041.52944295-.6528561.86063596-1.1847756.74520546-5.175-1.234-9.4-.641-12.563 1.764-.1731773.13350516-.3853405.20656799-.604.208z"/><path id="Shape" d="m25.119 8.03c-.2163702 0-.4269038-.07017787-.6-.2-3.161-2.4-7.386-3-12.563-1.764-.5319195.1154305-1.0584715-.21576251-1.1847756-.74520546-.1263041-.52944296.1940315-1.0626698.7207756-1.19979454 7.206-1.719 11.72.2 14.238 2.117.3453968.25902538.4855619.71046925.347605 1.11956707-.1379569.40909781-.522883.6834693-.954605.68043293z"/></g></g></g></svg>